<?xml version="1.0" standalone="no"?>
<svg xmlns="http://www.w3.org/2000/svg" width="32" height="32"><rect width="32" height="32" opacity="0"></rect><g><path d="M8 25.98Q6.37 25.98 4.99 25.18Q3.62 24.38 2.82 23.01Q2.02 21.63 2.02 20Q2.02 18.24 2.96 16.75Q3.9 15.26 5.5 14.56Q5.76 14.43 5.9 14.22Q6.05 14.02 6.08 13.76Q6.21 12.19 6.91 10.75L5.44 9.28Q4.45 11.04 4.16 12.99Q2.24 14.05 1.12 15.94Q0 17.82 0 20Q0 22.18 1.07 24.02Q2.14 25.86 3.98 26.93Q5.82 28 8 28L24.13 28L22.11 25.98L8 25.98ZM29.63 25.66Q30.75 24.54 31.36 23.09Q31.97 21.63 31.97 20Q31.97 18.02 31.04 16.27Q30.11 14.53 28.5 13.41Q26.88 12.29 24.93 12.06Q24.35 9.73 22.86 7.89Q21.38 6.05 19.22 5.01Q17.06 3.97 14.62 3.97Q11.74 3.97 9.25 5.41L10.75 6.88Q12.54 5.98 14.62 5.98Q16.74 5.98 18.56 6.91Q20.38 7.84 21.6 9.47Q22.82 11.1 23.14 13.18Q23.17 13.54 23.46 13.78Q23.74 14.02 24.1 14.02Q25.7 14.05 27.06 14.85Q28.42 15.65 29.22 17.01Q30.02 18.37 30.02 20Q30.02 21.22 29.55 22.32Q29.09 23.42 28.22 24.26L29.63 25.66Z" fill="rgba(0,0,0,0.9019607843137255)"></path><path d="M29.02 28.99Q29.31 28.7 29.31 28.29Q29.31 27.87 29.02 27.58L4.32 2.91Q4.03 2.62 3.62 2.62Q3.2 2.62 2.91 2.91Q2.66 3.17 2.64 3.55Q2.62 3.94 2.85 4.22L2.91 4.32L27.62 28.99Q27.9 29.28 28.29 29.28Q28.67 29.28 29.02 28.99Z" fill="rgba(0,0,0,0.9019607843137255)"></path></g></svg>