<?xml version="1.0" standalone="no"?>
<svg xmlns="http://www.w3.org/2000/svg" width="32" height="32"><rect width="32" height="32" opacity="0"></rect><g><path d="M17.06 8.06Q16.58 7.58 15.89 7.58Q15.2 7.58 14.72 8.06L8 14.75Q7.74 15.04 7.74 15.46Q7.74 15.87 8 16.16Q8.32 16.48 8.72 16.48Q9.12 16.48 9.44 16.16L14.91 10.69L14.91 22.94Q14.91 23.36 15.2 23.65Q15.49 23.94 15.9 23.94Q16.32 23.94 16.62 23.65Q16.93 23.36 16.93 22.94L16.93 10.75L22.3 16.16Q22.62 16.45 23.04 16.45Q23.46 16.45 23.71 16.16Q24.03 15.87 24.03 15.46Q24.03 15.04 23.71 14.75L17.06 8.06Z" fill="rgba(0,0,0,0.9019607843137255)"></path><path d="M16 3.33Q19.42 3.33 22.34 5.04Q25.25 6.75 26.96 9.66Q28.67 12.58 28.67 16Q28.67 19.42 26.96 22.34Q25.25 25.25 22.34 26.96Q19.42 28.67 16 28.67Q12.54 28.67 9.63 26.96Q6.72 25.25 5.02 22.34Q3.33 19.42 3.33 16Q3.33 12.58 5.02 9.66Q6.72 6.75 9.63 5.04Q12.54 3.33 16 3.33ZM16 1.34Q12.03 1.34 8.66 3.31Q5.28 5.28 3.31 8.66Q1.34 12.03 1.34 16Q1.34 19.97 3.31 23.34Q5.28 26.72 8.66 28.69Q12.03 30.66 16 30.66Q19.97 30.66 23.34 28.69Q26.72 26.72 28.69 23.34Q30.66 19.97 30.66 16Q30.66 12.03 28.69 8.66Q26.72 5.28 23.34 3.31Q19.97 1.34 16 1.34Z" fill="rgba(0,0,0,0.9019607843137255)"></path></g></svg>