<?xml version="1.0" standalone="no"?>
<svg xmlns="http://www.w3.org/2000/svg" width="32" height="32"><rect width="32" height="32" opacity="0"></rect><g><path d="M30.02 12Q29.47 12 29.07 12.4Q28.67 12.8 28.67 13.34L28.67 18.66Q28.67 19.2 29.07 19.6Q29.47 20 30.02 20Q30.56 20 30.94 19.6Q31.33 19.2 31.33 18.66L31.33 13.34Q31.33 12.8 30.94 12.4Q30.56 12 30.02 12ZM4 7.68Q3.1 7.68 2.34 8.13Q1.57 8.58 1.12 9.34Q0.67 10.11 0.67 11.01L0.67 20.99Q0.67 21.89 1.12 22.66Q1.57 23.42 2.34 23.87Q3.1 24.32 4 24.32L23.71 24.32Q24.64 24.32 25.39 23.87Q26.14 23.42 26.59 22.67Q27.04 21.92 27.04 20.99L27.04 11.01Q27.04 10.08 26.59 9.33Q26.14 8.58 25.39 8.13Q24.64 7.68 23.71 7.68L4 7.68ZM23.71 9.66Q24.29 9.66 24.67 10.06Q25.06 10.46 25.06 11.01L25.06 20.99Q25.06 21.54 24.67 21.94Q24.29 22.34 23.71 22.34L4 22.34Q3.46 22.34 3.06 21.94Q2.66 21.54 2.66 20.99L2.66 11.01Q2.66 10.46 3.06 10.06Q3.46 9.66 4 9.66L23.71 9.66Z" fill="rgba(0,0,0,0.9019607843137255)"></path></g></svg>